<svg xmlns="http://www.w3.org/2000/svg" xmlns:xlink="http://www.w3.org/1999/xlink" width="250" zoomAndPan="magnify" viewBox="0 0 187.5 187.499992" height="250" preserveAspectRatio="xMidYMid meet" version="1.2"><defs><clipPath id="f4b4481a9b"><path d="M 6.171875 6.171875 L 181.203125 6.171875 L 181.203125 181.203125 L 6.171875 181.203125 Z M 6.171875 6.171875 "/></clipPath></defs><g id="4314d4f0d5"><g clip-rule="nonzero" clip-path="url(#f4b4481a9b)"><path style=" stroke:none;fill-rule:nonzero;fill:#6f6f6f;fill-opacity:1;" d="M 93.6875 6.171875 C 45.324219 6.171875 6.171875 45.324219 6.171875 93.6875 C 6.171875 142.050781 45.324219 181.203125 93.6875 181.203125 C 142.050781 181.203125 181.203125 142 181.203125 93.6875 C 181.203125 45.375 142 6.171875 93.6875 6.171875 Z M 175.492188 93.6875 C 175.492188 138.859375 138.859375 175.492188 93.6875 175.492188 C 48.515625 175.492188 11.882812 138.859375 11.882812 93.6875 C 11.882812 48.515625 48.515625 11.882812 93.6875 11.882812 C 138.859375 11.882812 175.492188 48.515625 175.492188 93.6875 Z M 175.492188 93.6875 "/></g><path style=" stroke:none;fill-rule:nonzero;fill:#6f6f6f;fill-opacity:1;" d="M 93.6875 41.773438 L 93.6875 44.605469 C 120.75 44.605469 142.71875 66.625 142.71875 93.636719 L 145.550781 93.636719 C 145.550781 65.03125 122.34375 41.773438 93.6875 41.773438 M 93.6875 142.71875 C 66.625 142.71875 44.65625 120.699219 44.65625 93.6875 L 41.824219 93.6875 C 41.824219 122.34375 65.082031 145.601562 93.738281 145.601562 "/><path style=" stroke:none;fill-rule:nonzero;fill:#6f6f6f;fill-opacity:1;" d="M 136.082031 56.539062 C 137.265625 57.828125 138.964844 59.886719 139.941406 61.121094 L 157.691406 49.902344 C 156.816406 48.71875 155.375 46.972656 154.347656 45.734375 L 143.132812 53.144531 L 142.359375 53.8125 L 142.925781 52.992188 L 147.863281 43.113281 L 144.367188 39.613281 L 134.488281 44.554688 L 133.664062 45.117188 L 134.332031 44.347656 L 141.742188 33.132812 C 140.457031 32 139.167969 31.019531 137.574219 29.785156 L 126.308594 47.484375 C 127.746094 48.566406 129.601562 50.210938 130.78125 51.292969 L 141.382812 45.789062 L 142.050781 45.273438 L 141.535156 45.941406 Z M 136.082031 56.539062 "/><path style=" stroke:none;fill-rule:nonzero;fill:#6f6f6f;fill-opacity:1;" d="M 95.898438 34.109375 L 100.734375 23.253906 L 101.046875 22.273438 L 100.941406 23.304688 L 101.457031 37.8125 C 103.15625 37.96875 104.902344 38.222656 106.652344 38.480469 L 105.882812 17.027344 C 103.464844 16.769531 101.046875 16.5625 98.625 16.460938 L 93.84375 28.292969 L 93.6875 29.167969 L 93.535156 28.292969 L 88.75 16.460938 C 86.332031 16.5625 83.914062 16.769531 81.492188 17.027344 L 80.722656 38.480469 C 82.472656 38.171875 84.222656 37.96875 85.917969 37.8125 L 86.433594 23.304688 L 86.332031 22.273438 L 86.640625 23.253906 L 91.476562 34.109375 Z M 95.898438 34.109375 "/><path style=" stroke:none;fill-rule:nonzero;fill:#6f6f6f;fill-opacity:1;" d="M 56.695312 51.242188 C 59.472656 48.308594 61.066406 44.863281 58.289062 41.621094 C 56.746094 39.871094 54.226562 39.460938 52.066406 40.332031 L 51.859375 40.4375 L 51.910156 40.230469 C 52.21875 39.40625 52.425781 36.730469 50.160156 34.878906 C 49.027344 34.003906 47.640625 33.644531 46.25 33.800781 C 43.625 34.058594 41.621094 35.859375 36.113281 41.980469 C 34.46875 43.832031 32.050781 46.765625 30.558594 48.667969 C 30.558594 48.667969 45.683594 63.023438 45.683594 63.023438 C 50.726562 57.464844 52.785156 55.355469 56.695312 51.242188 Z M 36.988281 47.691406 C 40.023438 43.988281 43.265625 40.589844 44.757812 39.253906 C 45.222656 38.84375 45.734375 38.429688 46.355469 38.222656 C 47.332031 37.96875 48.359375 38.636719 48.617188 39.664062 C 48.875 40.695312 48.207031 41.671875 47.484375 42.445312 C 45.890625 44.242188 39.972656 50.417969 39.972656 50.417969 C 39.972656 50.417969 36.988281 47.691406 36.988281 47.691406 Z M 42.90625 53.351562 C 42.90625 53.351562 48.667969 47.28125 50.519531 45.324219 C 51.242188 44.554688 51.753906 44.089844 52.269531 43.832031 C 52.9375 43.523438 53.660156 43.421875 54.328125 43.882812 C 54.945312 44.296875 55.253906 45.066406 55.101562 45.789062 C 54.894531 46.664062 54.226562 47.484375 53.609375 48.101562 C 52.835938 48.976562 45.992188 56.230469 45.992188 56.285156 Z M 42.90625 53.351562 "/><path style=" stroke:none;fill-rule:nonzero;fill:#0066b1;fill-opacity:1;" d="M 93.6875 41.773438 L 93.6875 93.6875 L 41.773438 93.6875 C 41.773438 64.976562 64.976562 41.773438 93.6875 41.773438 Z M 93.6875 41.773438 "/><path style=" stroke:none;fill-rule:nonzero;fill:#0066b1;fill-opacity:1;" d="M 145.550781 93.6875 C 145.550781 122.34375 122.34375 145.601562 93.636719 145.601562 L 93.636719 93.6875 Z M 145.550781 93.6875 "/></g></svg>